<svg width="153" height="58" viewBox="0 0 153 58" xmlns="http://www.w3.org/2000/svg"><title>3E9A5722-8CEE-41D7-9577-044567AB39B5</title><g fill="#FFF" fill-rule="evenodd"><rect opacity=".1" width="153" height="58" rx="5"/><path d="M34.578 28.622c-.033-3.653 2.995-5.43 3.134-5.512-1.715-2.497-4.374-2.838-5.308-2.866-2.233-.234-4.399 1.334-5.536 1.334-1.16 0-2.912-1.31-4.8-1.272-2.429.037-4.701 1.441-5.948 3.622-2.572 4.446-.654 10.98 1.81 14.573 1.234 1.762 2.674 3.726 4.56 3.655 1.844-.073 2.533-1.173 4.76-1.173 2.205 0 2.852 1.173 4.775 1.13 1.98-.03 3.226-1.768 4.415-3.545 1.425-2.015 1.997-4.004 2.02-4.106-.046-.015-3.844-1.463-3.882-5.84M30.946 17.88c.992-1.238 1.67-2.924 1.482-4.634-1.436.064-3.232.992-4.266 2.203-.915 1.068-1.732 2.818-1.52 4.463 1.612.12 3.268-.812 4.304-2.032M56.88 35.616l-1.277-3.939c-.135-.402-.39-1.35-.762-2.84h-.045c-.15.64-.39 1.588-.718 2.84l-1.255 3.939h4.057zm4.415 6.289h-2.578l-1.412-4.43h-4.908l-1.345 4.43h-2.51l4.864-15.083h3.004l4.885 15.083zM71.314 36.421c0-1.058-.238-1.93-.717-2.619-.523-.714-1.226-1.073-2.107-1.073-.597 0-1.14.2-1.624.594a2.741 2.741 0 0 0-.953 1.556 3.134 3.134 0 0 0-.112.734v1.816c0 .789.243 1.456.729 2.003.486.544 1.117.817 1.893.817.912 0 1.621-.353 2.129-1.052.508-.702.762-1.626.762-2.776m2.466-.088c0 1.85-.503 3.312-1.51 4.385-.901.955-2.022 1.432-3.358 1.432-1.442 0-2.48-.513-3.11-1.543v5.707h-2.42v-11.71c0-1.162-.03-2.353-.09-3.575h2.129l.135 1.725h.045c.807-1.3 2.032-1.95 3.676-1.95 1.285 0 2.357.507 3.216 1.522.857 1.016 1.287 2.351 1.287 4.007M83.842 36.421c0-1.058-.24-1.93-.719-2.619-.523-.714-1.223-1.073-2.104-1.073-.598 0-1.14.2-1.627.594a2.74 2.74 0 0 0-.951 1.556 3.207 3.207 0 0 0-.114.734v1.816c0 .789.243 1.456.728 2.003.486.542 1.117.817 1.896.817.912 0 1.622-.353 2.128-1.052.507-.702.763-1.626.763-2.776m2.466-.088c0 1.85-.504 3.312-1.51 4.385-.902.955-2.021 1.432-3.358 1.432-1.443 0-2.48-.513-3.11-1.543v5.707h-2.42v-11.71c0-1.162-.031-2.353-.09-3.575h2.128l.135 1.725h.046c.806-1.3 2.03-1.95 3.675-1.95 1.284 0 2.357.507 3.217 1.522.856 1.016 1.287 2.351 1.287 4.007M100.316 37.674c0 1.284-.45 2.328-1.343 3.134-.983.88-2.356 1.32-4.115 1.32-1.626 0-2.929-.314-3.912-.94l.56-2.014a6.741 6.741 0 0 0 3.496.94c.913 0 1.622-.205 2.128-.615.509-.41.764-.958.764-1.643a2.1 2.1 0 0 0-.628-1.545c-.42-.416-1.112-.806-2.083-1.163-2.646-.985-3.97-2.425-3.97-4.32 0-1.238.469-2.25 1.4-3.043.934-.79 2.171-1.186 3.71-1.186 1.375 0 2.52.238 3.43.716l-.608 1.97c-.856-.463-1.822-.694-2.902-.694-.854 0-1.525.21-2.004.628a1.794 1.794 0 0 0-.607 1.365c0 .596.233 1.09.697 1.477.402.357 1.135.746 2.195 1.163 1.301.523 2.256 1.133 2.869 1.833.615.702.923 1.575.923 2.617M108.338 32.842h-2.669v5.28c0 1.343.47 2.014 1.414 2.014.431 0 .79-.037 1.075-.113l.065 1.835c-.476.178-1.103.267-1.88.267-.957 0-1.703-.291-2.242-.873-.538-.583-.807-1.559-.807-2.932v-5.482h-1.59v-1.814h1.59v-1.991l2.375-.716v2.707h2.67v1.818zM117.84 36.433c0-.997-.214-1.851-.647-2.566-.508-.863-1.235-1.295-2.174-1.295-.97 0-1.715.432-2.22 1.295-.434.715-.65 1.585-.65 2.61 0 .998.216 1.855.65 2.568.524.864 1.252 1.295 2.2 1.295.924 0 1.648-.44 2.174-1.317.445-.73.667-1.592.667-2.59m2.51-.056c0 1.672-.479 3.044-1.436 4.117-1 1.105-2.329 1.656-3.987 1.656-1.602 0-2.875-.529-3.824-1.586-.949-1.06-1.422-2.395-1.422-4.006 0-1.685.49-3.065 1.467-4.139.98-1.073 2.298-1.611 3.957-1.611 1.598 0 2.882.531 3.854 1.589.93 1.028 1.391 2.354 1.391 3.98M128.22 33.154a4.218 4.218 0 0 0-.763-.067c-.851 0-1.51.32-1.973.964-.403.566-.604 1.283-.604 2.147v5.707h-2.42v-7.452c0-1.251-.024-2.395-.07-3.423h2.108l.088 2.081h.067c.257-.715.658-1.292 1.21-1.724a2.93 2.93 0 0 1 1.75-.582c.223 0 .425.016.604.044l.003 2.305zM136.735 35.326c.017-.718-.142-1.335-.47-1.858-.418-.673-1.063-1.008-1.927-1.008-.792 0-1.436.327-1.928.984-.401.523-.64 1.15-.715 1.88l5.04.002zm2.308.626c0 .433-.028.798-.088 1.096h-7.26c.026 1.075.38 1.896 1.053 2.463.611.507 1.404.76 2.374.76 1.075 0 2.056-.17 2.938-.514l.38 1.677c-1.032.448-2.248.671-3.653.671-1.689 0-3.014-.495-3.98-1.485-.96-.992-1.444-2.326-1.444-3.995 0-1.638.447-3.004 1.345-4.093.94-1.163 2.211-1.744 3.81-1.744 1.57 0 2.758.581 3.565 1.744.639.921.96 2.063.96 3.42zM53.542 18.334l-.627-1.936a28.84 28.84 0 0 1-.375-1.396h-.023c-.077.318-.187.78-.353 1.396l-.616 1.936h1.994zm2.17 3.09h-1.267l-.694-2.177H51.34l-.662 2.177h-1.234l2.391-7.413h1.476l2.403 7.413zM61.69 16.079l-2.027 5.345h-1.156l-1.962-5.345h1.278l.915 2.827c.155.472.286.923.385 1.352h.033c.088-.385.22-.836.385-1.352l.903-2.827h1.247zM65.84 18.762c-1.322 0-1.983.32-1.983 1.078 0 .56.342.835.815.835.606 0 1.168-.461 1.168-1.088v-.825zm.166 2.662l-.088-.615h-.033c-.364.495-.893.736-1.565.736-.958 0-1.641-.67-1.641-1.573 0-1.319 1.145-2.001 3.128-2.001v-.099c0-.704-.374-1.056-1.112-1.056-.529 0-.992.133-1.398.397l-.242-.781c.496-.309 1.112-.463 1.84-.463 1.398 0 2.104.737 2.104 2.211v1.97c0 .539.023.957.078 1.275h-1.07zM69.077 21.424h1.19V16.08h-1.19v5.344zm.572-6.225a.698.698 0 0 1-.705-.715c0-.407.319-.704.728-.704.407 0 .737.297.726.704 0 .43-.308.715-.75.715zM72.38 21.424h1.19v-7.797h-1.19zM78.46 18.762c-1.323 0-1.983.32-1.983 1.078 0 .56.341.835.815.835.606 0 1.168-.461 1.168-1.088v-.825zm.166 2.662l-.09-.615h-.032c-.363.495-.892.736-1.564.736-.958 0-1.641-.67-1.641-1.573 0-1.319 1.145-2.001 3.128-2.001v-.099c0-.704-.375-1.056-1.112-1.056-.53 0-.993.133-1.399.397l-.243-.782c.496-.309 1.113-.463 1.84-.463 1.398 0 2.106.737 2.106 2.211v1.969c0 .54.023.958.075 1.276h-1.068zM84.196 16.903c-.685 0-1.312.594-1.312 1.419v.935c0 .737.563 1.342 1.29 1.342.892 0 1.422-.726 1.422-1.88 0-1.078-.553-1.816-1.4-1.816m.241 4.642c-.76 0-1.32-.32-1.684-.946h-.023l-.068.825h-1.013c.032-.429.044-.914.044-1.44v-6.357h1.191v3.234h.022c.353-.594.925-.89 1.707-.89 1.29 0 2.193 1.1 2.193 2.705 0 1.659-1.003 2.87-2.369 2.87M88.566 21.424h1.188v-7.797h-1.188zM95.14 18.19c0-.824-.419-1.407-1.18-1.407-.684 0-1.22.594-1.301 1.408h2.481zm1.09.847H92.66c.025 1.012.694 1.584 1.685 1.584.53 0 1.014-.089 1.443-.253l.185.825c-.506.22-1.1.33-1.795.33-1.674 0-2.665-1.056-2.665-2.694 0-1.639 1.014-2.87 2.533-2.87 1.364 0 2.226 1.011 2.226 2.54.004.209-.007.396-.04.538zM103.486 16.837c-.86 0-1.41.803-1.41 1.925 0 1.1.562 1.902 1.399 1.902s1.398-.858 1.398-1.925c0-1.088-.55-1.902-1.387-1.902m-.045 4.708c-1.565 0-2.58-1.166-2.58-2.748 0-1.652 1.037-2.828 2.67-2.828 1.54 0 2.577 1.11 2.577 2.74 0 1.67-1.069 2.836-2.667 2.836M112.504 21.424h-1.189v-3.069c0-.945-.363-1.419-1.079-1.419-.705 0-1.19.605-1.19 1.31v3.178h-1.19v-3.817c0-.472-.012-.98-.044-1.529h1.047l.056.825h.033c.316-.57.969-.935 1.695-.935 1.123 0 1.861.858 1.861 2.255v3.201zM120.287 16.97h-1.309v2.595c0 .661.23.99.693.99.21 0 .387-.022.529-.055l.033.902c-.232.089-.54.133-.924.133-.938 0-1.498-.517-1.498-1.87V16.97h-.78v-.89h.78v-.98l1.167-.353v1.331h1.309v.892zM126.587 21.424h-1.191v-3.046c0-.957-.363-1.44-1.08-1.44-.616 0-1.188.418-1.188 1.264v3.222h-1.19v-7.797h1.19v3.21h.024c.373-.582.914-.869 1.608-.869 1.134 0 1.827.88 1.827 2.277v3.18zM131.575 18.19c0-.824-.418-1.407-1.178-1.407-.685 0-1.223.594-1.301 1.408h2.48zm1.091.847h-3.57c.023 1.012.692 1.584 1.685 1.584.53 0 1.013-.089 1.441-.253l.186.825c-.505.22-1.1.33-1.795.33-1.675 0-2.666-1.056-2.666-2.694 0-1.639 1.014-2.87 2.533-2.87 1.365 0 2.226 1.011 2.226 2.54.004.209-.007.396-.04.538z"/></g></svg>