<svg width="16" height="16" viewBox="0 0 16 16" xmlns="http://www.w3.org/2000/svg"><title>B390B54F-9A68-429F-A606-608C78D83228</title><path d="M14.378 6.058h.017v8.233H9.717V6.058h4.661zm-1.795 9.407h-1.174c-.173 0-.31-.138-.31-.328s.137-.328.31-.328h1.174c.172 0 .31.138.31.328s-.138.328-.31.328zM8.768 5.609v9.131c0 .69.552 1.26 1.208 1.26h4.143c.673 0 1.208-.57 1.208-1.26V5.592c0-.69-.552-1.26-1.208-1.26H9.976c-.656.018-1.208.587-1.208 1.277zm-4.177 9.2a7.32 7.32 0 0 1 .052-.052.278.278 0 0 1 .224-.103h1.208c.121 0 .225.069.277.172a.504.504 0 0 1 .034.156c0 .051-.017.103-.034.155a.308.308 0 0 1-.277.173H4.867a.34.34 0 0 1-.328-.328c0-.052.018-.121.052-.173zM.76.121C.311.31 0 .777 0 1.31v13.394C0 15.414.552 16 1.243 16h6.99a2.26 2.26 0 0 1-.38-1.26v-.742H1.14V1.76h8.647V3.4c.052 0 .121-.018.19-.018h.967V1.294c0-.535-.31-.983-.76-1.19A1.158 1.158 0 0 0 9.7 0H1.243a1.419 1.419 0 0 0-.484.12z" fill="#FFF" fill-rule="evenodd"/></svg>