<svg width="156" height="58" viewBox="0 0 156 58" xmlns="http://www.w3.org/2000/svg"><title>9BC1037A-523F-4AA0-AAE5-3300A599C0BE</title><defs><linearGradient x1="50.036%" y1="0%" x2="50.036%" y2="100%" id="a"><stop stop-color="#207CB0" offset="0%"/><stop stop-color="#3CB2BF" offset="38%"/><stop stop-color="#58E9CE" offset="80%"/><stop stop-color="#63FFD4" offset="100%"/></linearGradient><linearGradient x1="0%" y1="49.962%" y2="49.962%" id="b"><stop stop-color="#4BC3AE" offset="0%"/><stop stop-color="#DEE999" offset="100%"/></linearGradient><linearGradient x1="50.028%" y1="0%" x2="50.028%" y2="100%" id="c"><stop stop-color="#EC403D" offset="0%"/><stop stop-color="#C93B75" offset="38%"/><stop stop-color="#A636AC" offset="80%"/><stop stop-color="#9934C2" offset="100%"/></linearGradient><linearGradient x1="50%" y1="0%" x2="50%" y2="99.859%" id="d"><stop stop-color="#F87" offset="0%"/><stop stop-color="#FFB175" offset="61%"/><stop stop-color="#FFC774" offset="100%"/></linearGradient></defs><g fill="none" fill-rule="evenodd"><rect fill="#FFF" opacity=".1" width="156" height="58" rx="5"/><g fill-rule="nonzero"><path d="M54.748 13.45a3.02 3.02 0 0 1 2.218.941l-.728.816a1.949 1.949 0 0 0-1.479-.612c-1.32 0-2.207 1.02-2.207 2.686s.796 2.652 2.287 2.652c.38.017.754-.1 1.058-.328v-1.553h-1.4v-1.077h2.583v3.264a3.603 3.603 0 0 1-2.4.884c-1.98 0-3.482-1.36-3.482-3.819a3.505 3.505 0 0 1 .912-2.716 3.533 3.533 0 0 1 2.638-1.137zM60.8 15.298c1.512 0 2.275 1.133 2.275 2.64.022.204.022.41 0 .613h-3.572c.006.428.183.835.493 1.131.31.296.727.456 1.156.444a2.281 2.281 0 0 0 1.297-.408l.444.816c-.566.38-1.23.589-1.912.6a2.701 2.701 0 0 1-2.029-.843 2.68 2.68 0 0 1-.723-2.069c-.06-.73.18-1.453.664-2.004a2.723 2.723 0 0 1 1.906-.92zm1.137 2.425c0-.884-.375-1.416-1.138-1.416-.762 0-1.194.476-1.296 1.36l2.434.056zM64.383 16.454h-.796v-.963h.864l.16-1.519h1.137V15.4h1.376v1.031h-1.422v2.675c0 .657.25.975.785.975.201-.013.398-.063.58-.148l.228.964c-.366.129-.75.198-1.138.204-1.296 0-1.774-.816-1.774-2.018v-2.629zM70.48 13.723a.804.804 0 0 1 .449-.79.81.81 0 0 1 .901.128.803.803 0 0 1-.542 1.398.753.753 0 0 1-.808-.736zm.148 1.677h1.308v5.587h-1.308V15.4zM73.802 16.454h-.796v-.963h.864l.16-1.519h1.137V15.4h1.4v1.031H75.12v2.675c0 .657.25.975.785.975.201-.013.398-.063.58-.148l.228.964c-.365.129-.75.198-1.138.204-1.296 0-1.774-.816-1.774-2.018v-2.629zM82.334 15.298c.75.01 1.464.33 1.97.885.504.554.755 1.293.692 2.039a2.65 2.65 0 0 1-1.276 2.44 2.67 2.67 0 0 1-2.762 0 2.65 2.65 0 0 1-1.275-2.44 2.68 2.68 0 0 1 .685-2.038 2.7 2.7 0 0 1 1.966-.886zm0 4.771c.819 0 1.32-.736 1.32-1.847 0-1.11-.501-1.859-1.32-1.859-.82 0-1.309.737-1.309 1.859 0 1.122.49 1.836 1.309 1.836v.011zM86.292 15.4h1.081l.091.748a2.597 2.597 0 0 1 1.832-.884c1.194 0 1.717.805 1.717 2.21v3.513h-1.262v-3.32c0-.918-.262-1.258-.876-1.258-.505.037-.969.29-1.274.691v3.887h-1.309V15.4zM116.631 40.537a3.937 3.937 0 0 1-1.627-.328 3.035 3.035 0 0 1-1.228-1.009h-.102c.065.5.1 1.003.102 1.507v3.729h-1.377v-13.17h1.138l.193 1.236h.069c.312-.46.74-.831 1.24-1.077a3.8 3.8 0 0 1 1.615-.328 3.418 3.418 0 0 1 2.764 1.303 5.425 5.425 0 0 1 .979 3.4 5.391 5.391 0 0 1-1.001 3.468 3.418 3.418 0 0 1-2.765 1.27zm-.25-8.228a2.44 2.44 0 0 0-2.014.771 3.944 3.944 0 0 0-.637 2.448v.272a4.52 4.52 0 0 0 .637 2.731c.51.587 1.272.894 2.048.828a2.13 2.13 0 0 0 1.843-.952c.5-.776.75-1.686.717-2.607a4.317 4.317 0 0 0-.672-2.595 2.199 2.199 0 0 0-1.922-.896zM123.593 40.333h-1.376V27.504h1.376zM131.51 40.333l-.272-1.292h-.069a3.785 3.785 0 0 1-1.353 1.134 4.154 4.154 0 0 1-1.684.306 3.056 3.056 0 0 1-2.116-.692 2.534 2.534 0 0 1-.773-1.972c0-1.828 1.467-2.788 4.402-2.878h1.547v-.567a2.26 2.26 0 0 0-.466-1.575 1.904 1.904 0 0 0-1.48-.51 6.012 6.012 0 0 0-2.57.691l-.421-1.054a6.681 6.681 0 0 1 1.467-.567 6.381 6.381 0 0 1 1.604-.204 3.422 3.422 0 0 1 2.412.726c.566.614.85 1.435.785 2.266v6.188h-1.012zm-3.105-.963c.742.043 1.47-.21 2.025-.703.51-.526.774-1.242.728-1.972v-.782h-1.377a5.01 5.01 0 0 0-2.366.51 1.528 1.528 0 0 0-.728 1.406c-.03.427.138.844.455 1.133.352.297.802.454 1.263.442v-.034zM133.33 31.267h1.48l2.047 5.213c.327.83.597 1.683.808 2.55h.068c.068-.283.228-.76.455-1.44.228-.68.978-2.776 2.275-6.278h1.48l-3.948 10.313a5.154 5.154 0 0 1-1.354 2.176 2.885 2.885 0 0 1-1.9.646c-.42.002-.84-.044-1.251-.136v-1.133c.336.072.68.106 1.024.102a2.103 2.103 0 0 0 2.025-1.587l.512-1.292-3.72-9.134zM91.104 32.15a3.09 3.09 0 0 1-.25 5.248c-.3.222-.494.559-.535.93.025.336.211.64.5.815l.683.533a3.296 3.296 0 0 1 1.593 2.652c0 1.78-1.73 3.581-5.005 3.581-2.765 0-4.084-1.303-4.084-2.708a2.73 2.73 0 0 1 1.467-2.267 8.226 8.226 0 0 1 3.606-.918 1.98 1.98 0 0 1-.568-1.28c.006-.261.073-.517.193-.749h-.614a3.01 3.01 0 0 1-2.22-.81 2.987 2.987 0 0 1-.943-2.159 3.395 3.395 0 0 1 1.217-2.539 5.2 5.2 0 0 1 3.413-1.042h3.913l-1.217.68-1.149.034zm-1.342 8.421a2.946 2.946 0 0 0-.432 0 7.568 7.568 0 0 0-2.002.306c-.92.208-1.594.99-1.661 1.927 0 1.349 1.308 2.267 3.344 2.267 1.832 0 2.799-.873 2.799-2.052.022-.918-.603-1.428-2.048-2.448zm.546-3.638a1.91 1.91 0 0 0 .478-1.382c0-1.36-.82-3.491-2.4-3.491a1.789 1.789 0 0 0-1.332.623 2.182 2.182 0 0 0-.42 1.406c0 1.269.739 3.4 2.377 3.4.487-.016.95-.214 1.297-.556zM79.137 40.265a4.491 4.491 0 0 1-3.273-1.25 4.457 4.457 0 0 1-1.368-3.215 4.684 4.684 0 0 1 1.483-3.333A4.72 4.72 0 0 1 79.41 31.2a4.445 4.445 0 0 1 3.227 1.27 4.412 4.412 0 0 1 1.323 3.195 4.616 4.616 0 0 1-1.431 3.32 4.651 4.651 0 0 1-3.392 1.281zm2.378-1.53a3.39 3.39 0 0 0 .568-2.096c0-1.666-.796-4.84-3.15-4.84a2.645 2.645 0 0 0-1.707.646 2.862 2.862 0 0 0-.876 2.267c0 1.87.933 4.953 3.23 4.953.751.003 1.461-.34 1.923-.93h.012zM68.842 40.265a4.491 4.491 0 0 1-3.273-1.25 4.457 4.457 0 0 1-1.368-3.215 4.684 4.684 0 0 1 1.483-3.333 4.72 4.72 0 0 1 3.431-1.268 4.445 4.445 0 0 1 3.227 1.27 4.412 4.412 0 0 1 1.323 3.195 4.616 4.616 0 0 1-1.43 3.32 4.651 4.651 0 0 1-3.393 1.281zm2.378-1.53a3.39 3.39 0 0 0 .568-2.096c0-1.666-.796-4.84-3.15-4.84a2.656 2.656 0 0 0-1.707.646 2.85 2.85 0 0 0-.876 2.267c0 1.87.933 4.953 3.23 4.953.751.002 1.46-.341 1.923-.93h.012zM62.756 39.97l-2.73.624c-1.04.187-2.094.294-3.151.317a6.84 6.84 0 0 1-5.157-1.854 6.788 6.788 0 0 1-2.124-5.036c0-3.695 2.844-7.118 7.713-7.118a11.05 11.05 0 0 1 2.924.397 7.442 7.442 0 0 1 2.525 1.133l-1.581 1.508-.671.147.477-.76a5.47 5.47 0 0 0-4.083-1.79 5.288 5.288 0 0 0-3.893 1.677 5.247 5.247 0 0 0-1.397 3.99 6.718 6.718 0 0 0 1.897 4.907 6.77 6.77 0 0 0 4.86 2.051c.833.02 1.66-.142 2.423-.476v-3.06l-2.878.148 1.524-.816h4.05l-.5.476a.442.442 0 0 0-.194.306v.906l-.034 2.324z" fill="#FFF"/><path d="M97.145 39.427c-.626-.057-.762-.17-.762-.918V27.617c.08-.668.273-.782.864-1.133h-2.73l-1.433.68h1.456v11.764c0 .385-.08.442-.512 1.009h3.412l.706-.42-1.001-.09zM104.914 39.597c-.204.113-.42.249-.625.34-.581.252-1.21.375-1.843.362a4.06 4.06 0 0 1-2.526-.736 4.878 4.878 0 0 1-1.933-3.99 4.276 4.276 0 0 1 1.246-3.097 4.308 4.308 0 0 1 3.099-1.266 3.708 3.708 0 0 1 1.957.533 3.14 3.14 0 0 1 1.32 1.87l-4.46 1.79-1.468.114c.478 2.402 2.105 3.796 3.902 3.796a4.928 4.928 0 0 0 2.275-.657l-.944.94zm-1.786-5.667c.364-.136.546-.25.546-.51a1.875 1.875 0 0 0-1.877-1.62c-.65.035-1.254.339-1.67.838a2.317 2.317 0 0 0-.514 1.79c0 .318 0 .658.057.998l3.458-1.496zM106.746 31.335v1.246h-.148v-1.246h-.455v-.125h.978v.125zM108.418 32.581v-1.258l-.387 1.258h-.114l-.386-1.258v1.258h-.137V31.21h.24l.352 1.133.352-1.133h.24v1.371z" fill="#FFF"/><path fill="url(#a)" d="M0 .113v29.988l15.824-14.994z" transform="translate(14 12)"/><path fill="url(#b)" d="M20.078 11.084l-6.382-3.525L0 0v.113l15.824 14.994z" transform="translate(14 12)"/><path fill="url(#c)" d="M0 30.101v.114l13.696-7.56 6.382-3.513-4.254-4.035z" transform="translate(14 12)"/><path fill="url(#d)" d="M20.078 11.084l-4.254 4.023 4.254 4.035 7.303-4.035z" transform="translate(14 12)"/></g></g></svg>